<svg width="352" height="674" viewBox="0 0 352 674" fill="none" xmlns="http://www.w3.org/2000/svg">
<g filter="url(#filter0_d_3011_12802)">
<path d="M339.033 153.818V227.383C339.031 228.063 338.76 228.714 338.28 229.195C337.799 229.675 337.148 229.946 336.468 229.948H334.642V613.173C334.642 623.777 330.429 633.948 322.931 641.446C315.432 648.945 305.263 653.158 294.658 653.159H55.2C49.95 653.158 44.7515 652.124 39.9014 650.114C35.0512 648.105 30.6444 645.16 26.9325 641.447C23.2205 637.734 20.2762 633.327 18.2676 628.476C16.259 623.626 15.2255 618.427 15.226 613.177V243.388H13.9C13.4212 243.389 12.9616 243.2 12.6217 242.862C12.2818 242.525 12.0892 242.067 12.086 241.588V199.718C12.0855 199.479 12.132 199.243 12.2229 199.023C12.3139 198.802 12.4474 198.602 12.6159 198.433C12.7844 198.264 12.9845 198.13 13.2049 198.038C13.4252 197.947 13.6614 197.9 13.9 197.9H15.226V182.13H13.893C13.3901 182.128 12.9085 181.927 12.5537 181.571C12.1988 181.214 11.9997 180.732 12 180.229V138.929C12.0018 138.428 12.2019 137.947 12.5565 137.592C12.9111 137.238 13.3915 137.038 13.893 137.036H15.226V115.512H13.871C13.6503 115.512 13.4317 115.469 13.2278 115.385C13.0238 115.3 12.8385 115.177 12.6825 115.021C12.5264 114.864 12.4027 114.679 12.3183 114.475C12.234 114.271 12.1907 114.053 12.191 113.832V91.3C12.1902 90.8532 12.3666 90.4243 12.6815 90.1073C12.9964 89.7903 13.4242 89.6111 13.871 89.609H15.226V43.975C15.2263 33.3732 19.4379 23.2057 26.9343 15.7091C34.4308 8.21237 44.5982 4.00053 55.2 4L294.656 4C305.259 4 315.428 8.21129 322.926 15.7077C330.425 23.2042 334.639 33.372 334.642 43.975V151.253H336.468C337.148 151.255 337.799 151.526 338.28 152.006C338.76 152.487 339.031 153.138 339.033 153.818Z" fill="white"/>
</g>
<path d="M186.771 24.5039H147.251C145.847 24.5039 144.709 25.642 144.709 27.0459V31.0189C144.709 32.4228 145.847 33.5609 147.251 33.5609H186.771C188.175 33.5609 189.313 32.4228 189.313 31.0189V27.0459C189.313 25.642 188.175 24.5039 186.771 24.5039Z" fill="#332F30"/>
<path d="M201.196 34.1685C204.033 34.1685 206.333 31.8686 206.333 29.0315C206.333 26.1944 204.033 23.8945 201.196 23.8945C198.359 23.8945 196.059 26.1944 196.059 29.0315C196.059 31.8686 198.359 34.1685 201.196 34.1685Z" fill="#332F30"/>
<path d="M315.957 51.9012V606.001C315.891 612.665 313.181 619.029 308.424 623.696C303.667 628.362 297.252 630.949 290.588 630.887H61.369C54.6639 630.909 48.2185 628.297 43.421 623.612C41.0727 621.319 39.2065 618.58 37.9321 615.556C36.6577 612.532 36.0008 609.283 36 606.001V51.9012C36.0308 48.6004 36.7115 45.338 38.0032 42.3003C39.2949 39.2626 41.1722 36.509 43.528 34.1968C45.8838 31.8847 48.672 30.0591 51.7333 28.8245C54.7947 27.5899 58.0692 26.9703 61.37 27.0012H95.676V31.3212C95.7288 36.8093 97.959 42.0518 101.876 45.8961C105.793 49.7403 111.077 51.8715 116.565 51.8212H233.14C238.628 51.8715 243.912 49.7403 247.829 45.8961C251.746 42.0518 253.976 36.8093 254.029 31.3212V27.0012H290.588C293.889 26.9694 297.164 27.5883 300.226 28.8226C303.287 30.057 306.076 31.8825 308.432 34.1948C310.788 36.5072 312.665 39.2611 313.956 42.2993C315.247 45.3374 315.927 48.6002 315.957 51.9012Z" fill="black"/>
<defs>
<filter id="filter0_d_3011_12802" x="0" y="0" width="351.033" height="673.16" filterUnits="userSpaceOnUse" color-interpolation-filters="sRGB">
<feFlood flood-opacity="0" result="BackgroundImageFix"/>
<feColorMatrix in="SourceAlpha" type="matrix" values="0 0 0 0 0 0 0 0 0 0 0 0 0 0 0 0 0 0 127 0" result="hardAlpha"/>
<feOffset dy="8"/>
<feGaussianBlur stdDeviation="6"/>
<feColorMatrix type="matrix" values="0 0 0 0 0 0 0 0 0 0 0 0 0 0 0 0 0 0 0.161 0"/>
<feBlend mode="normal" in2="BackgroundImageFix" result="effect1_dropShadow_3011_12802"/>
<feBlend mode="normal" in="SourceGraphic" in2="effect1_dropShadow_3011_12802" result="shape"/>
</filter>
</defs>
</svg>
